<svg width="429" height="100" viewBox="0 0 429 100" fill="none" xmlns="http://www.w3.org/2000/svg">
<g clip-path="url(#clip0_108_18497)">
<path fill-rule="evenodd" clip-rule="evenodd" d="M9.64373 0H90.6511C95.9772 0 100.295 4.31765 100.295 9.64373V89.6867C100.295 95.0128 95.9772 99.3305 90.6511 99.3305H9.64373C4.31765 99.3305 0 95.0128 0 89.6867V9.64373C0 4.31765 4.31765 0 9.64373 0ZM84.2593 50.372C84.2815 47.7741 84.0628 45.128 83.4428 42.506C82.8582 39.897 81.9384 37.2543 80.6732 34.845C79.4304 32.4257 77.9304 30.1585 76.1652 28.1413C74.4092 26.1162 72.4596 24.2532 70.266 22.6765C65.9264 19.4848 60.7241 17.1955 54.9508 16.3759C54.4517 16.2837 53.9357 16.2459 53.4195 16.2081C53.2018 16.1921 52.984 16.1761 52.7674 16.1561C52.0354 16.0935 51.3005 16.0563 50.5535 16.0804C50.3421 16.0858 50.1358 16.0881 49.9306 16.0905C49.3983 16.0966 48.8731 16.1026 48.2822 16.1601C47.4495 16.2508 46.6158 16.3596 45.7841 16.4856C42.6247 17.0904 39.7405 18.0653 37.2979 19.3053C36.3453 19.7302 35.5084 20.2226 34.6629 20.72C34.349 20.9048 34.0338 21.0902 33.7111 21.2731C33.5087 21.4083 33.3049 21.5431 33.1009 21.6781C32.2034 22.2718 31.2997 22.8697 30.471 23.5251C29.4437 24.3224 28.4215 25.1339 27.4829 26.0251C26.507 26.8791 25.6088 27.8246 24.7147 28.7783C23.9832 29.5475 23.3051 30.3935 22.6277 31.2385C22.4724 31.4322 22.3171 31.626 22.1612 31.8187L20.9808 33.4881L20.4001 34.3329L19.8558 35.2442L18.7911 37.0879L17.8315 39.11L17.3718 40.1373L16.9646 41.2593C16.9051 41.4334 16.845 41.6056 16.7851 41.7774C16.5831 42.3566 16.383 42.9303 16.2134 43.5507C15.914 44.6293 16.1045 45.6827 16.6711 46.5759C17.2456 47.4872 18.2638 48.3219 19.4826 48.8915C20.1359 49.2049 20.8597 49.4529 21.6278 49.6525C21.5837 50.0322 21.5466 50.4128 21.5095 50.7939C21.4874 51.0218 21.4651 51.25 21.4414 51.4783C21.4365 51.7066 21.43 51.9355 21.4236 52.1647C21.3968 53.1155 21.3698 54.0716 21.4535 55.0147C21.5684 57.3716 21.9949 59.6993 22.6683 61.9604C23.3135 64.2336 24.2742 66.4221 25.4578 68.5099C26.6201 70.6118 28.12 72.5604 29.8218 74.3538C33.2654 77.9708 37.7817 80.6008 42.4894 82.0122C44.8532 82.739 47.2847 83.1251 49.7324 83.3136C52.182 83.4708 54.6457 83.3296 57.0964 82.9688C59.542 82.5605 61.9633 81.8841 64.3233 80.9395C66.665 79.9406 68.9424 78.6894 71.0563 77.1168C73.13 75.522 75.0384 73.7135 76.6543 71.6983C78.2481 69.6762 79.6625 67.5137 80.7552 65.2113C82.9629 60.6176 84.1948 55.5798 84.2593 50.372ZM64.1699 50.8158C64.4159 53.0043 64.1264 55.3801 63.3754 57.5566C63.0124 58.6575 62.478 59.6635 61.9064 60.6312C61.3136 61.5867 60.5969 62.4114 59.8358 63.1866C59.0545 63.9216 58.1412 64.5718 57.1442 65.1605C56.1159 65.7009 55.006 66.1626 53.8286 66.5064C52.6431 66.8048 51.4123 67.0296 50.1623 67.0881C48.9202 67.1163 47.6581 67.078 46.4474 66.8411C44.011 66.3794 41.7962 65.4147 39.9363 63.8593C38.0522 62.3028 36.4432 60.1192 35.4281 57.6393C34.908 56.4055 34.5138 55.099 34.3142 53.7713C34.2176 53.3324 34.1822 52.8935 34.1466 52.4527C34.1283 52.2261 34.11 51.9991 34.0833 51.7712C34.089 51.5658 34.0897 51.3587 34.0905 51.1513C34.0917 50.8022 34.093 50.4519 34.1176 50.1059C35.5733 50.0294 36.9343 49.9588 38.0986 49.9497C39.0479 49.9287 39.8412 49.9641 40.4836 49.9927C40.7047 50.0025 40.908 50.0116 41.0936 50.0173C41.1798 50.0181 41.2612 50.0191 41.3377 50.02C41.9173 50.0269 42.2145 50.0305 42.1522 49.9397C42.1825 49.1171 42.875 47.1372 44.1865 45.4144C45.4487 43.6804 47.1695 41.9565 48.7199 40.9888C49.2796 40.5781 49.7736 40.3465 50.1667 40.1621C50.3245 40.0882 50.466 40.0218 50.589 39.9545C50.6707 39.9344 50.7493 39.8971 50.829 39.8407C50.8834 39.8123 50.9823 39.7999 51.087 39.7868C51.1684 39.7766 51.2534 39.7659 51.3239 39.747C51.5003 39.6956 51.6888 39.6845 51.8804 39.6805C51.9583 39.681 52.0356 39.6704 52.1135 39.6597C52.227 39.6441 52.3419 39.6283 52.462 39.6463C54.0448 39.6331 55.9391 40.1019 57.69 41.0918C59.445 42.0595 61.0459 43.5021 62.1346 45.1221C62.7122 45.9206 63.1184 46.7643 63.4692 47.727C63.8422 48.6695 64.0428 49.7271 64.1699 50.8158Z" fill="url(#paint0_linear_108_18497)"/>
<path d="M139.279 20.3606C148.722 20.3606 156.405 28.0436 156.405 37.4869V49.0842C156.405 58.5272 148.722 66.2106 139.279 66.2106C129.836 66.2106 122.154 58.5276 122.154 49.0842V37.4869C122.154 28.0439 129.836 20.3606 139.279 20.3606ZM149.213 49.0836V37.4863C149.213 32.0086 144.757 27.552 139.279 27.552C133.802 27.552 129.346 32.0084 129.346 37.4863V49.0836C129.346 54.5613 133.802 59.0178 139.279 59.0178C144.757 59.0178 149.213 54.5614 149.213 49.0836ZM176.389 32.4975C185.659 32.4975 193.199 40.0391 193.199 49.3095C193.199 58.58 185.658 66.1215 176.387 66.1215C172.812 66.1215 169.496 64.9955 166.768 63.0852V74.752C166.768 76.738 165.158 78.3479 163.172 78.3479C161.186 78.3479 159.576 76.7378 159.576 74.752V36.0944C159.576 34.1085 161.186 32.4985 163.172 32.4985C164.978 32.4985 166.468 33.8308 166.725 35.5655C169.461 33.6363 172.794 32.4975 176.389 32.4975ZM176.389 58.9278C181.693 58.9278 186.008 54.6125 186.008 49.3086C186.008 44.0046 181.693 39.6894 176.389 39.6894C171.085 39.6894 166.77 44.0046 166.77 49.3086C166.77 54.6125 171.085 58.9278 176.389 58.9278ZM213.201 32.4975C222.496 32.4975 230.057 40.0588 230.057 49.3537C230.057 51.3397 228.447 52.9497 226.461 52.9497H204.231C205.66 56.503 209.143 59.018 213.202 59.018C215.783 59.018 218.21 58.0129 220.035 56.1874C221.44 54.7832 223.716 54.7836 225.121 56.1874C226.526 57.5921 226.525 59.8688 225.121 61.2731C221.937 64.4569 217.704 66.2099 213.201 66.2099C203.906 66.2099 196.345 58.6487 196.345 49.3537C196.345 40.0588 203.906 32.4975 213.201 32.4975ZM204.23 45.7578H222.172C220.743 42.2045 217.261 39.6895 213.201 39.6895C209.142 39.6895 205.66 42.2045 204.23 45.7578ZM246.312 32.4975C253.517 32.4975 259.379 38.36 259.379 45.5653V62.6147C259.379 64.6006 257.769 66.2106 255.783 66.2106C253.797 66.2106 252.187 64.6005 252.187 62.6147V45.5653C252.187 42.3257 249.552 39.6898 246.311 39.6898C243.071 39.6898 240.436 42.3252 240.436 45.5653V62.6147C240.436 64.6006 238.826 66.2106 236.84 66.2106C234.854 66.2106 233.244 64.6005 233.244 62.6147V36.0941C233.244 34.1082 234.854 32.4982 236.84 32.4982C238.127 32.4982 239.253 33.1764 239.888 34.1928C241.786 33.1163 243.978 32.4975 246.312 32.4975ZM311.171 45.4877C313.158 45.4877 314.767 47.0978 314.767 49.0836C314.767 58.5266 307.084 66.2099 297.641 66.2099C288.198 66.2099 280.515 58.5269 280.515 49.0836V37.4863C280.515 28.0433 288.198 20.3599 297.641 20.3599C307.084 20.3599 314.767 28.043 314.767 37.4863C314.767 39.4722 313.157 41.0822 311.171 41.0822C309.186 41.0822 307.576 39.4721 307.576 37.4863C307.576 32.0086 303.119 27.552 297.641 27.552C292.163 27.552 287.707 32.0084 287.707 37.4863V49.0836C287.707 54.5613 292.163 59.0178 297.641 59.0178C303.119 59.0178 307.576 54.5614 307.576 49.0836C307.576 47.0976 309.186 45.4877 311.171 45.4877ZM354.122 52.9477C354.122 52.9486 354.122 52.9495 354.123 52.9504V62.6138C354.123 64.5997 352.513 66.2097 350.527 66.2097C348.542 66.2097 346.932 64.5996 346.932 62.6138V54.4387L325.13 32.6373V62.613C325.13 64.5989 323.52 66.2089 321.534 66.2089C319.549 66.2089 317.938 64.5988 317.938 62.613V23.9554C317.938 22.5008 318.814 21.1895 320.158 20.6331C321.502 20.0771 323.049 20.3841 324.077 21.4125L336.03 33.3661L347.984 21.4125C349.012 20.3841 350.559 20.0757 351.903 20.6331C353.246 21.1896 354.122 22.5008 354.122 23.9554L354.122 52.9477ZM341.116 38.4531L346.931 44.2677V32.6377L341.116 38.4531ZM391.377 61.4256C391.931 63.0092 391.316 64.7659 389.896 65.6581C388.475 66.5508 386.626 66.3422 385.44 65.156L371.909 51.6258C370.505 50.2216 370.505 47.9448 371.909 46.5405C373.314 45.1363 375.591 45.1363 376.995 46.5405L379.383 48.9283L374.453 34.8414L364.317 63.8018C363.798 65.2833 362.408 66.2107 360.922 66.2107C360.528 66.2112 360.128 66.1455 359.734 66.008C357.86 65.3522 356.872 63.3006 357.528 61.4263L371.058 22.7687C371.563 21.3263 372.924 20.3607 374.452 20.3607C375.981 20.3607 377.342 21.3262 377.847 22.7687L391.377 61.4256ZM413.807 20.3606C422.185 20.3606 429 27.1764 429 35.5537C429 43.9311 422.185 50.7469 413.807 50.7469H401.94V62.6137C401.94 64.5996 400.33 66.2096 398.345 66.2096C396.359 66.2096 394.749 64.5995 394.749 62.6137V47.1508C394.749 45.1649 396.359 43.5549 398.345 43.5549H413.807C418.219 43.5549 421.808 39.9656 421.808 35.5536C421.808 31.1416 418.219 27.5522 413.807 27.5522H407.026L414.417 34.9431C415.821 36.3474 415.821 38.6242 414.417 40.0285C413.012 41.4332 410.736 41.4332 409.331 40.0285L395.801 26.4983C394.772 25.4699 394.465 23.9232 395.022 22.5795C395.579 21.2358 396.89 20.3599 398.344 20.3599L413.807 20.3606Z" fill="white"/>
</g>
<defs>
<linearGradient id="paint0_linear_108_18497" x1="6.5" y1="38" x2="96" y2="43" gradientUnits="userSpaceOnUse">
<stop stop-color="#2D388A"/>
<stop offset="1" stop-color="#00AEEF"/>
</linearGradient>
<clipPath id="clip0_108_18497">
<rect width="429" height="99.3305" fill="white"/>
</clipPath>
</defs>
</svg>
